<?xml version="1.0" standalone="no"?>
<!DOCTYPE svg PUBLIC "-//W3C//DTD SVG 20010904//EN"
 "http://www.w3.org/TR/2001/REC-SVG-20010904/DTD/svg10.dtd">
<svg version="1.0" xmlns="http://www.w3.org/2000/svg"
 width="500.000000pt" height="500.000000pt" viewBox="0 0 500.000000 500.000000"
 preserveAspectRatio="xMidYMid meet">

<g transform="translate(0.000000,500.000000) scale(0.100000,-0.100000)"
fill="#000000" stroke="none">
<path d="M847 4130 c-33 -29 -37 -37 -37 -82 0 -57 9 -79 43 -101 15 -9 147
-37 323 -67 164 -28 300 -52 301 -54 5 -4 903 -2307 903 -2315 0 -4 -65 -58
-143 -119 -229 -179 -295 -260 -316 -392 -13 -80 0 -149 40 -212 36 -56 104
-119 155 -143 l36 -17 -49 -22 c-87 -41 -133 -115 -133 -214 0 -80 36 -151 98
-195 44 -30 52 -32 137 -32 85 0 92 2 137 32 123 86 134 274 22 373 l-35 30
1013 0 1012 0 -36 -38 c-48 -49 -68 -98 -68 -170 0 -80 36 -151 98 -195 44
-30 52 -32 137 -32 85 0 93 2 137 32 62 44 98 115 98 195 0 71 -16 113 -65
167 l-37 41 112 0 112 0 34 34 c29 29 34 41 34 80 0 36 -6 52 -29 78 l-29 33
-619 6 c-340 4 -928 7 -1306 8 -773 1 -747 -1 -768 69 -16 54 2 103 55 156 23
23 131 110 240 195 l198 154 277 23 c152 13 623 51 1046 85 424 33 781 66 794
72 54 26 56 36 141 735 44 364 80 676 80 692 0 43 -25 87 -60 105 -32 17 -141
20 -2063 69 -724 18 -890 24 -897 36 -4 7 -72 178 -150 379 -139 356 -171 424
-207 435 -33 10 -608 107 -669 113 -58 5 -62 4 -97 -27z m1486 -1107 l107 -6
0 -209 0 -209 -106 3 -107 3 -47 120 c-25 66 -63 162 -83 213 l-36 92 83 0
c46 0 131 -3 189 -7z m510 -13 l87 0 0 -205 0 -205 -200 0 -200 0 0 212 0 211
113 -6 c61 -4 151 -7 200 -7z m565 -15 c10 -4 12 -48 10 -197 l-3 -193 -197
-3 -198 -2 0 202 0 203 188 -3 c103 -2 193 -5 200 -7z m461 -11 l31 -6 0 -189
0 -189 -200 0 -200 0 0 195 0 195 169 0 c93 0 183 -3 200 -6z m469 -10 l52 -7
0 -183 0 -184 -200 0 -200 0 0 190 0 190 148 0 c81 0 171 -3 200 -6z m467 -16
c4 -4 -3 -80 -14 -171 -12 -90 -21 -169 -21 -175 0 -9 -43 -12 -150 -12 l-150
0 0 186 0 186 164 -4 c91 -2 168 -6 171 -10z m-2365 -629 c0 -272 -5 -268
-155 129 l-24 62 89 0 90 0 0 -191z m490 1 l0 -190 -200 0 -200 0 0 190 0 190
200 0 200 0 0 -190z m488 3 l-3 -188 -197 -3 -198 -2 0 190 0 190 200 0 200 0
-2 -187z m482 -3 l0 -190 -200 0 -200 0 0 190 0 190 200 0 200 0 0 -190z m490
0 l0 -190 -200 0 -200 0 0 190 0 190 200 0 200 0 0 -190z m366 163 c-3 -16
-12 -91 -21 -168 -23 -208 -5 -185 -145 -185 l-120 0 0 190 0 190 146 0 146 0
-6 -27z m-1826 -627 l0 -194 -47 -6 c-27 -3 -88 -8 -138 -11 -49 -4 -102 -8
-116 -11 -25 -5 -28 0 -62 92 -35 90 -37 103 -37 210 l0 114 200 0 200 0 0
-194z m490 19 l0 -174 -32 -5 c-35 -5 -311 -26 -347 -26 -21 0 -21 4 -21 190
l0 190 200 0 200 0 0 -175z m480 16 l0 -158 -167 -12 c-93 -7 -183 -15 -200
-18 l-33 -5 0 176 0 176 200 0 200 0 0 -159z m490 21 l0 -138 -167 -13 c-93
-7 -183 -15 -200 -18 l-33 -5 0 156 0 156 200 0 200 0 0 -138z m307 91 c-4
-27 -9 -79 -13 -116 -8 -79 -21 -97 -72 -97 -20 0 -61 -3 -89 -6 l-53 -7 0
137 0 136 116 0 117 0 -6 -47z m-2409 -1504 c34 -21 65 -93 58 -132 -14 -72
-75 -127 -141 -127 -37 0 -93 28 -111 55 -89 136 56 289 194 204z m2280 -1
c29 -22 41 -42 53 -82 8 -32 7 -47 -6 -82 -53 -139 -242 -116 -270 33 -7 41
22 110 57 132 49 31 126 30 166 -1z"/>
<path d="M2173 460 c-44 -18 -57 -86 -23 -120 27 -27 83 -27 110 0 56 56 -13
151 -87 120z"/>
<path d="M4453 460 c-44 -18 -57 -86 -23 -120 27 -27 83 -27 110 0 56 56 -13
151 -87 120z"/>
</g>
</svg>
